HIERARCHY
ROOT Hips
{
	OFFSET -14.64140 90.27770 -84.91600
	CHANNELS 6 Xposition Yposition Zposition Zrotation Xrotation Yrotation
	JOINT Spine
	{
		OFFSET 0.00000 13.20850 -1.60436
		CHANNELS 3 Zrotation Xrotation Yrotation
		JOINT Spine1
		{
			OFFSET 0.00000 8.61716 0.00000
			CHANNELS 3 Zrotation Xrotation Yrotation
			JOINT Spine2
			{
				OFFSET 0.00000 8.61717 0.00000
				CHANNELS 3 Zrotation Xrotation Yrotation
				JOINT Spine3
				{
					OFFSET 0.00000 8.61717 0.00000
					CHANNELS 3 Zrotation Xrotation Yrotation
					JOINT Neck
					{
						OFFSET 0.00000 11.07920 1.10792
						CHANNELS 3 Zrotation Xrotation Yrotation
						JOINT Neck1
						{
							OFFSET 0.00000 7.08032 0.00000
							CHANNELS 3 Zrotation Xrotation Yrotation
							JOINT Head
							{
								OFFSET 0.00000 7.08031 0.00000
								CHANNELS 3 Zrotation Xrotation Yrotation
								End site
								{
									OFFSET 0.00000 0.00000 0.00000
								}
							}
						}
					}
					JOINT RightShoulder
					{
						OFFSET -0.01000 7.91373 5.19711
						CHANNELS 3 Zrotation Xrotation Yrotation
						JOINT RightArm
						{
							OFFSET -18.41580 0.00000 0.00000
							CHANNELS 3 Zrotation Xrotation Yrotation
							JOINT RightForeArm
							{
								OFFSET -29.11090 0.00000 0.00000
								CHANNELS 3 Zrotation Xrotation Yrotation
								JOINT RightHand
								{
									OFFSET -24.65040 0.00000 0.00000
									CHANNELS 3 Zrotation Xrotation Yrotation
									JOINT RightHandThumb1
									{
										OFFSET -5.35114 -0.85590 3.97906
										CHANNELS 3 Zrotation Xrotation Yrotation
										JOINT RightHandThumb2
										{
											OFFSET -4.52789 0.00000 0.00000
											CHANNELS 3 Zrotation Xrotation Yrotation
											JOINT RightHandThumb3
											{
												OFFSET -2.46976 0.00000 0.00000
												CHANNELS 3 Zrotation Xrotation Yrotation
												End site
												{
													OFFSET 0.00000 0.00000 0.00000
												}
											}
										}
									}
									JOINT RightHandIndex1
									{
										OFFSET -14.26970 0.00000 2.88139
										CHANNELS 3 Zrotation Xrotation Yrotation
										JOINT RightHandIndex2
										{
											OFFSET -5.48836 0.00000 0.00000
											CHANNELS 3 Zrotation Xrotation Yrotation
											JOINT RightHandIndex3
											{
												OFFSET -3.01859 0.00000 0.00000
												CHANNELS 3 Zrotation Xrotation Yrotation
												End site
												{
													OFFSET 0.00000 0.00000 0.00000
												}
											}
										}
									}
									JOINT RightHandMiddle1
									{
										OFFSET -14.26970 0.00000 -0.09147
										CHANNELS 3 Zrotation Xrotation Yrotation
										JOINT RightHandMiddle2
										{
											OFFSET -6.17441 0.00000 0.00000
											CHANNELS 3 Zrotation Xrotation Yrotation
											JOINT RightHandMiddle3
											{
												OFFSET -3.56743 0.00000 0.00000
												CHANNELS 3 Zrotation Xrotation Yrotation
												End site
												{
													OFFSET 0.00000 0.00000 0.00000
												}
											}
										}
									}
									JOINT RightHandRing1
									{
										OFFSET -12.69180 0.00000 -3.06433
										CHANNELS 3 Zrotation Xrotation Yrotation
										JOINT RightHandRing2
										{
											OFFSET -5.62556 0.00000 0.00000
											CHANNELS 3 Zrotation Xrotation Yrotation
											JOINT RightHandRing3
											{
												OFFSET -3.56744 0.00000 0.00000
												CHANNELS 3 Zrotation Xrotation Yrotation
												End site
												{
													OFFSET 0.00000 0.00000 0.00000
												}
											}
										}
									}
									JOINT RightHandPinky1
									{
										OFFSET -11.11390 0.00000 -6.03719
										CHANNELS 3 Zrotation Xrotation Yrotation
										JOINT RightHandPinky2
										{
											OFFSET -4.52789 0.00000 0.00000
											CHANNELS 3 Zrotation Xrotation Yrotation
											JOINT RightHandPinky3
											{
												OFFSET -2.46976 0.00000 0.00000
												CHANNELS 3 Zrotation Xrotation Yrotation
												End site
												{
													OFFSET 0.00000 0.00000 0.00000
												}
											}
										}
									}
								}
							}
						}
					}
					JOINT LeftShoulder
					{
						OFFSET 0.01000 7.91373 5.19711
						CHANNELS 3 Zrotation Xrotation Yrotation
						JOINT LeftArm
						{
							OFFSET 18.41580 0.00000 0.00000
							CHANNELS 3 Zrotation Xrotation Yrotation
							JOINT LeftForeArm
							{
								OFFSET 29.11090 0.00000 0.00000
								CHANNELS 3 Zrotation Xrotation Yrotation
								JOINT LeftHand
								{
									OFFSET 24.65040 0.00000 0.00000
									CHANNELS 3 Zrotation Xrotation Yrotation
									JOINT LeftHandThumb1
									{
										OFFSET 5.35114 -0.85590 3.97906
										CHANNELS 3 Zrotation Xrotation Yrotation
										JOINT LeftHandThumb2
										{
											OFFSET 4.52789 0.00000 0.00000
											CHANNELS 3 Zrotation Xrotation Yrotation
											JOINT LeftHandThumb3
											{
												OFFSET 2.46977 0.00000 0.00000
												CHANNELS 3 Zrotation Xrotation Yrotation
												End site
												{
													OFFSET 0.00000 0.00000 0.00000
												}
											}
										}
									}
									JOINT LeftHandIndex1
									{
										OFFSET 14.26970 0.00000 2.88139
										CHANNELS 3 Zrotation Xrotation Yrotation
										JOINT LeftHandIndex2
										{
											OFFSET 5.48836 0.00000 0.00000
											CHANNELS 3 Zrotation Xrotation Yrotation
											JOINT LeftHandIndex3
											{
												OFFSET 3.01859 0.00000 0.00000
												CHANNELS 3 Zrotation Xrotation Yrotation
												End site
												{
													OFFSET 0.00000 0.00000 0.00000
												}
											}
										}
									}
									JOINT LeftHandMiddle1
									{
										OFFSET 14.26970 0.00000 -0.09147
										CHANNELS 3 Zrotation Xrotation Yrotation
										JOINT LeftHandMiddle2
										{
											OFFSET 6.17440 0.00000 0.00000
											CHANNELS 3 Zrotation Xrotation Yrotation
											JOINT LeftHandMiddle3
											{
												OFFSET 3.56744 0.00000 0.00000
												CHANNELS 3 Zrotation Xrotation Yrotation
												End site
												{
													OFFSET 0.00000 0.00000 0.00000
												}
											}
										}
									}
									JOINT LeftHandRing1
									{
										OFFSET 12.69180 0.00000 -3.06433
										CHANNELS 3 Zrotation Xrotation Yrotation
										JOINT LeftHandRing2
										{
											OFFSET 5.62556 0.00000 0.00000
											CHANNELS 3 Zrotation Xrotation Yrotation
											JOINT LeftHandRing3
											{
												OFFSET 3.56744 0.00000 0.00000
												CHANNELS 3 Zrotation Xrotation Yrotation
												End site
												{
													OFFSET 0.00000 0.00000 0.00000
												}
											}
										}
									}
									JOINT LeftHandPinky1
									{
										OFFSET 11.11390 0.00000 -6.03719
										CHANNELS 3 Zrotation Xrotation Yrotation
										JOINT LeftHandPinky2
										{
											OFFSET 4.52789 0.00000 0.00000
											CHANNELS 3 Zrotation Xrotation Yrotation
											JOINT LeftHandPinky3
											{
												OFFSET 2.46976 0.00000 0.00000
												CHANNELS 3 Zrotation Xrotation Yrotation
												End site
												{
													OFFSET 0.00000 0.00000 0.00000
												}
											}
										}
									}
								}
							}
						}
					}
					JOINT pCube4
					{
						OFFSET 0.00000 10.91090 1.10792
						CHANNELS 3 Zrotation Xrotation Yrotation
						End site
						{
							OFFSET 0.00000 0.00000 0.00000
						}
					}
				}
			}
		}
	}
	JOINT RightUpLeg
	{
		OFFSET -9.98441 0.00000 0.00000
		CHANNELS 3 Zrotation Xrotation Yrotation
		JOINT RightLeg
		{
			OFFSET 0.00000 -42.11790 0.00000
			CHANNELS 3 Zrotation Xrotation Yrotation
			JOINT RightFoot
			{
				OFFSET 0.00000 -45.00020 -0.00001
				CHANNELS 3 Zrotation Xrotation Yrotation
				JOINT RightForeFoot
				{
					OFFSET 0.00000 -3.74820 0.00000
					CHANNELS 3 Zrotation Xrotation Yrotation
					JOINT RightToeBase
					{
						OFFSET 0.00000 0.06325 14.43120
						CHANNELS 3 Zrotation Xrotation Yrotation
						End site
						{
							OFFSET 0.00000 0.00000 0.00000
						}
					}
				}
			}
		}
	}
	JOINT LeftUpLeg
	{
		OFFSET 9.98441 0.00000 0.00000
		CHANNELS 3 Zrotation Xrotation Yrotation
		JOINT LeftLeg
		{
			OFFSET 0.00000 -42.11800 0.00000
			CHANNELS 3 Zrotation Xrotation Yrotation
			JOINT LeftFoot
			{
				OFFSET 0.00000 -45.00070 0.00000
				CHANNELS 3 Zrotation Xrotation Yrotation
				JOINT LeftForeFoot
				{
					OFFSET 0.00000 -3.74824 0.00000
					CHANNELS 3 Zrotation Xrotation Yrotation
					JOINT LeftToeBase
					{
						OFFSET 0.00000 0.06325 14.43110
						CHANNELS 3 Zrotation Xrotation Yrotation
						End site
						{
							OFFSET 0.00000 0.00000 0.00000
						}
					}
				}
			}
		}
	}
}
MOTION
Frames: 4
Frame Time: 0.050000
-0.0017138981390888118 -0.004877308066803942 0.046390125201266216 -0.026896905044302224 0.036696165745696376 -0.01701074696968753 2.5862722335286934 3.728276315233279 -1.7684762304522728 -0.8770575946654741 3.5695211272308676 0.4123250238105145 -0.7339844671005682 -1.0485495745784796 0.36360376431193064 -0.5919135735952813 -0.12136340080303065 -0.390342037542321 -0.20509450726707767 10.563060872676175 -0.48503407785310465 0.26156974446973436 -2.162654471309051 -1.5981587217522872 0.8144110812101265 -19.42548600799211 -0.21610693962915475 -7.25846819735924 2.8674259496019077 -15.976208798512944 82.92304922553855 20.55687867569582 2.3212433596969255 -8.37710180264682 0.5037796669747381 50.66183585355152 19.1046123539437 -0.3250732249517661 -3.152390435299428 4.512767145216179 -0.07907262333827576 -1.5556410571007473 -0.02747764574022537 -0.022338441542369976 -56.25762176305609 -0.003850847113723262 0.025797332914173195 -56.2528200854074 -38.7266677818037 -0.02836815705588644 -0.007734616978265262 0.04770854673706013 0.02152361366128799 0.02737656330106675 -0.0012511563908061095 -0.00783105194976709 -0.018554763863372705 -36.64996501085362 0.02738269142097127 -0.008123284015083497 0.01261328284502616 0.04584357206437971 0.006441345346020634 -0.022908132102452173 -0.029556458275953202 -0.01882376125849598 -19.71073715522806 -0.029011603676091693 0.01685655098316611 0.009255185465615625 0.04931185466033918 -0.021004926016592065 0.003954808389393289 0.0464134286997345 -0.04221223230491359 24.034577357125446 0.026615004069252404 0.04610808167933073 28.90488647876376 0.01212862721012214 -0.01997985902592359 28.819688196584206 0.012483676923974545 -0.02940147725489608 7.699820813916836 1.9366326437709689 13.563630868246028 -77.37147580443511 24.804623617644374 -8.533660222757126 -0.5130178368937838 -0.3923863719951454 -41.613921998637494 -19.986587954759585 -5.306742069094206 6.208177250128059 -0.44519713364138014 0.11413816973686819 -8.160997773874742 -0.010768957728924866 0.010275280626536118 44.522016953794505 0.013517224447382473 -0.007733475302951844 44.54913934712981 12.483765736301194 0.0034256984033812846 0.03626326465859986 -0.043254553308262535 -0.046163153246018086 0.025180573899763085 0.039845262080584906 0.04334588523057926 -0.00981004583501757 11.129344614471727 -0.036622923211127124 0.024136794359290253 -0.029017202828557822 0.045837527044854484 -0.004590318114731258 0.02883093865810074 -0.014098619190498016 0.025199601852158 4.7421267828355536 -0.02337590790148423 0.006881998165843496 0.030122282721498948 0.014692934508003578 -0.04823823077044924 0.029407773835646425 0.03287694499952958 -0.03414588454091028 -5.6226763727425855 -0.012989109575549334 -0.016447741980134625 -6.715895584847277 0.019606134063646256 0.04436832311677638 -6.765469228386502 0.04345535570971839 -0.03900773702649442 -0.010238831521965194 0.01759184999478798 0.0388558458410947 8.070918516107698 3.523469219105699 -19.170894958924983 0.04627349951292623 10.348137638770366 0.014828187736903607 -5.593002128627975 -15.68348571141927 3.2049555077116785 -0.042012331104481236 0.02109124661896334 0.006388839577259648 -0.04560942563735937 4.702036599569678 0.024736432285778702 12.478711968984486 -8.280424557226148 6.892905800991762 0.03267865857332257 46.406627577083675 0.01062590905518474 -4.308236525018743 -14.756164540093549 -3.8222161273061936 -0.04054397744507316 -0.04406789343363292 0.03902437318988639 0.022516904219148388 -10.696429428010676 0.03848833699844937 
-0.0467767166592454 0.043336424241370936 0.02009300677343015 0.004950974839468544 -0.02654065361987163 0.04915033330954611 2.9444103214597277 3.6370494341362987 -1.773181320727102 -0.8789292884483731 3.5655616871779987 0.39880916883570555 -0.7288738925660976 -0.9527270419086755 0.42853860411713485 -0.6148208148764015 -0.1155466944308559 -0.39818872641523895 -0.13480864063312137 10.590465648647818 -0.5816628677970487 0.290952183598001 -1.9892033900319455 -1.7548514929149808 0.7908442185183479 -19.25235020957083 -0.23458480676314622 -7.437371641339469 2.9615036224354685 -16.242804948303164 83.25677154995431 20.688347783661737 2.4107145762736946 -9.125605280416378 -0.11138453900194788 50.93479675963274 18.906502955437343 -0.3044812147560272 -3.2866122340143584 4.520484063234475 -0.10537240610024207 -1.6349650208394362 -0.008766430451703213 -0.008017317836362434 -56.23128112243252 -0.00955696313470595 0.049467350520121016 -56.20207847595807 -38.7978602878525 -0.003683633069111268 -0.002773077717019648 -0.01168126227344553 0.005571368167895342 0.0018245713358501154 0.019700181763885993 -0.03273027159107693 -0.005686052236675836 -36.66197801139636 -0.03931104598088779 0.019178047251292882 -0.013853242151792391 0.024561673436456734 -0.0022399334959431892 0.032172637819959896 0.04101043803364747 0.00048349943042259093 -19.78676127373254 0.04519403865426046 0.021140678007687153 -0.007166159533774192 0.048515462253838244 0.033516833015200635 0.03535305313488522 0.046561895556896465 0.027971974507368273 24.03284653418156 0.04546915195924917 -0.018100809131260567 28.836904016437845 0.01917864379548861 -0.022716446142505033 28.866781671913543 -0.0002777683273845553 0.018564541114743763 7.760272690878672 1.9423421611508938 13.731218497118492 -77.5227462313244 25.108270798032688 -8.475985380976773 -0.7909305225057526 0.0033247655482221443 -42.20598690212369 -20.4814846541542 -5.915068539994363 6.650096109611007 -0.4293371868557537 0.0736277106889143 -8.141956234374975 -0.03399258587520827 -0.015227206187029682 44.58125443496995 -0.0381796608809872 0.019370293739192333 44.5870280681521 12.494699541833539 0.00957548249892798 0.03988323443965309 -0.041151680778128676 -0.0047138519120206585 -0.014772007207074311 0.02699888367013292 -0.030707524757171933 -0.03904787672407214 11.121326610125106 -0.03137785559832395 -0.023671100355603585 0.04579083342123579 0.016479333344617094 0.00231485060513676 0.0007924635871609323 -0.04101633692887716 -0.0056872700297952005 4.74710395740815 -0.017362270769492427 -0.0026334422022843383 -0.0475892879086388 -0.047314503738290214 0.04649447759451826 0.01623266878760948 -0.022931818661744638 0.040588805948478975 -5.602796549198101 -0.01835216901191739 -0.0469869114343459 -6.73321865937267 0.004684076140773162 0.02667032057018776 -6.765974266482337 0.0014518972985886865 -0.012707049648392242 0.018781469448287656 -0.047313895391439695 0.0006762081691542304 7.998574196694888 3.457749192897171 -19.25112187320784 -0.04382720117903242 10.420321915758032 0.011311524943429543 -5.647818084927523 -15.665910332711826 3.2220528416098158 -0.030353275051483972 -0.006362041463993359 -0.0025877467611155726 -0.03320329284434772 4.6964135792508745 -0.010782968621694663 12.463706554370871 -8.26145834098054 6.8726124723848585 0.028602114231820103 46.40426905199012 0.01934783949071553 -4.2993432172674195 -14.780252681140931 -3.875012685888595 0.022755340845134496 0.04803208417387045 -0.014394853972678683 0.019859198472815084 -10.706408146683913 0.0310059319146779 
0.018774668693882796 0.012204894254970488 0.026473438953668646 -0.03688812712052358 0.008674998102829273 0.00996954143978033 3.100277917478504 3.645589137267739 -1.8308645264833647 -0.836099639732015 3.6196216578205234 0.43221177980107967 -0.7809067875857754 -0.9663438206588651 0.47483484991602143 -0.5799606812368411 -0.12262329057547006 -0.3929182357039068 -0.1217452011254411 10.758388968598926 -0.5740451992154938 0.26416537389589256 -1.9011778465939049 -1.7720428128239056 0.8040706941944706 -19.15823104079737 -0.19401221203746982 -7.5606910851509115 2.88932793192291 -16.342845416151384 83.45031129043292 20.90386314457852 2.4608370026439634 -9.46303607091524 -0.9232557705841039 50.36321328656761 18.655572800933726 -0.24765560173625 -3.310102954866692 4.489283500395316 -0.11881862312107888 -1.5934939444842813 -0.007559767342203955 0.007802971413716109 -56.25016292176338 -0.021075869871740236 0.021503144991807565 -56.22690679088427 -38.785621647273295 -0.016815747139748708 -0.01684729183808426 -0.03850782101624597 -0.01863011768813542 -0.016932990885742523 -0.01713283005776096 -0.03522811128291452 0.004626276923389337 -36.671106012677114 -0.012890142011318054 0.012639148415589026 0.0034754446760808274 -0.03284257648751547 0.03244270786741795 -0.015307661845780491 -0.021190297169589707 0.0035659729184417247 -19.751660225283437 0.020219838290999423 -0.02320033539310767 0.0435476824909311 0.027419743473405273 0.042744697530803094 0.02995119532348576 0.010955624587472006 -0.017730240772363823 24.045020962659077 0.01678640377317362 0.01214023534211108 28.82442816982725 0.007514911964741969 -0.021528666801042925 28.892076549056362 0.01622013814161371 0.033530675680193224 7.867995637194688 2.0256956364265606 13.82141935602224 -77.53510643376303 25.4826883094639 -8.443286672982774 -0.7725693783943631 -0.27768331395787066 -42.03731296737692 -20.423846421832273 -6.078632162580718 6.7483490122188945 -0.4556665368165256 0.10139787887745119 -8.103362520202213 0.028797870022498097 0.0072426839554752915 44.591021988985574 -0.03142669585198371 -0.01951318459005048 44.60062706506209 12.469291730939792 0.0319250647139049 0.026805404906277055 0.013055234219032543 0.03092116880946503 -0.040558990313846334 -0.0009440461429714859 -0.041053005940356234 0.047264227168931146 11.130598182870017 0.03625774181850593 -0.021610110728035772 0.0276528141703622 0.02106092589161097 0.007337062498562877 -0.00636669346674168 0.027719548549712498 0.030469599757322254 4.765738568291353 0.011528970141238902 -0.02792847818963862 0.032480011687821955 0.01731462674493287 0.004395220778298188 -0.034044450717762895 0.009880862971859345 -0.04491841164908225 -5.646176254727816 0.015180393489343164 0.019428914198154144 -6.7505450826624624 -0.027137630243757663 0.004257614054592605 -6.6959269328845705 0.03956143275295372 0.0008696806092864473 -0.0066326157772088465 -0.01224465827074821 -0.03421142852911912 8.01084367084318 3.5102106439208294 -19.171521776846994 0.046263162381924884 10.38101490510224 0.032668826997565 -5.603070713349237 -15.703689368059917 3.1843512957144906 0.03917663219140111 0.044643451716854465 0.03584499997774022 -0.02770934471400468 4.668295798041248 0.04542559918078485 12.47837153228579 -8.278428468402725 6.876530863106046 -0.007154279661885464 46.33781996351068 0.014719718199095528 -4.281483333870174 -14.797598994178832 -3.859973308636307 -0.03737225104118021 0.0008414980930858776 -0.03471893529602844 -0.04366031491093325 -10.717258367500756 0.02108001032311363 
0.005959016682670486 0.03540225074519346 -0.025240763021160784 -0.043665664313688346 0.031863572774948085 0.00359557533081624 3.1479209890173796 3.5091137986832153 -1.8775970336646708 -0.8206495469070568 3.6089731260188973 0.42023635653535313 -0.7637362593543329 -0.9536828881841163 0.43854861185704247 -0.5629409635494915 -0.043721926898329384 -0.3344413630807223 -0.16088017973487015 10.761184155755425 -0.5454806862243191 0.3362655573581352 -1.843029779340739 -1.6924023599775975 0.8512608599957876 -19.020379000055538 -0.2084268331682804 -7.774041243389129 2.9397857074494347 -16.452676350306767 83.62046668112231 20.950652058434514 2.098870742632942 -9.033195740809582 -1.6309181753702895 48.74521348023405 18.488036594388557 -0.23106956705890896 -3.3502246490692897 4.556958607962309 -0.11389586344009944 -1.588875310905485 0.01758078797949435 -0.004719912789031269 -56.28379772160992 0.04899711812254625 0.041089100129888055 -56.27144940611701 -38.78366567114906 -0.002929313469608278 -0.024738939548944676 -0.0319638159284971 0.000515297428873846 -0.013885823372987655 -0.012924911523563338 0.01945422132658726 0.008522238084832923 -36.673814711961114 0.02565535582524946 -0.00948700426738042 0.0275849216166203 0.03512557710400865 0.016903222417356582 -0.04624033792228979 -0.008083324645733232 0.024526154185722304 -19.72420242286059 0.018434053685300957 -0.018421018856500337 0.002949534480486717 -0.003229178214708634 -0.043674372071316955 0.02510975301511185 0.04754248072594681 -0.021905655494751198 24.044504649693426 0.02098992528972361 -0.022422639252282484 28.866251208891 -0.02298851021311252 0.01282436117113893 28.82813643896455 0.01572707362111852 0.007400943603563318 7.923031919337957 2.0225774652037622 13.921576736519436 -77.433939453468 25.671942152061803 -8.14527326452467 0.09703746950930552 -1.0452377701868014 -41.24490357806421 -20.14795535531406 -5.771707741714064 6.562296363265589 -0.46794089070279143 0.08234383480995786 -8.132253010285112 -0.014930331043621679 -0.03199001372235096 44.57106359935488 0.04708057458816628 -0.0458041534696139 44.57233373342635 12.44703171720108 0.04886136719012885 0.04672207896216038 0.03163949105260111 0.02281195823528947 0.03162404804004531 0.011539725119328628 -0.04993555330718978 0.002358945201499579 11.071529536393614 -0.021178183548238902 -0.0430064085235882 0.031746665851786544 0.014056542364957935 0.035047469436310465 0.044121282532450595 -0.02024634762070767 -0.007566965549205619 4.798328869970614 -0.02597233959592926 0.04444266831362608 -0.022239916582284282 0.04154982489901149 -0.0005567780760802832 -0.047538158927331584 -0.022764877907681023 0.00573466875068569 -5.59371842046334 0.013280817220441402 0.005767770195930972 -6.752047764580507 -0.027207931675342 -0.008198164691947531 -6.728575843512038 -0.03135823187999289 -0.026445266765311313 -0.02393486972466685 -0.032759363890482625 0.0010925577611882297 8.060838518657224 3.4755292354221705 -19.178510136236333 -0.03211746148110346 10.37593891840927 -0.006160940234310276 -5.655046519505451 -15.687071286100862 3.2343680326355777 0.017525305518668766 0.025603256698559094 -0.029751110524719907 -0.02884770208235112 4.713622480304515 -0.019583358714364167 12.455380626980794 -8.258947951371171 6.907603913660685 0.03702778530135444 46.370326240904525 0.0029983960652431385 -4.316782543264504 -14.71480952163879 -3.8192559323787623 0.04701395091652148 -0.047124974137490075 0.0288539132292809 0.035527145779168406 -10.719978062791359 -0.0074182750797396856 
